<svg width="56" height="48"><g opacity=".16" stroke="#15803d" stroke-width="1.8" fill="none" stroke-linecap="round" stroke-linejoin="round"><g transform="translate(6 2) scale(.85)"><path d="M10 22V4a2 2 0 0 1 4 0v18"/><path d="M10 14H8a2 2 0 0 1-2-2V9a2 2 0 0 1 4 0v5"/><path d="M14 12h2a2 2 0 0 0 2-2V8a2 2 0 0 0-4 0v4"/><line x1="7" y1="22" x2="17" y2="22"/></g><g transform="translate(32 26) scale(.85)"><path d="M10 22V4a2 2 0 0 1 4 0v18"/><path d="M10 14H8a2 2 0 0 1-2-2V9a2 2 0 0 1 4 0v5"/><path d="M14 12h2a2 2 0 0 0 2-2V8a2 2 0 0 0-4 0v4"/><line x1="7" y1="22" x2="17" y2="22"/></g></g></svg>
